<svg version="1.1" xmlns="http://www.w3.org/2000/svg" width="320" height="320">
<path d="M0 0 C4.4129778 3.28424585 8.40042378 6.9586004 12.3671875 10.76171875 C13.04523438 11.37660156 13.72328125 11.99148437 14.421875 12.625 C19.83206074 17.69840711 23.96408619 23.52010752 28.16796875 29.58984375 C28.89371094 30.6365625 29.61945313 31.68328125 30.3671875 32.76171875 C30.77324219 33.5815625 31.17929688 34.40140625 31.59765625 35.24609375 C33.47798858 37.2043525 33.47798858 37.2043525 37.3046875 36.60546875 C38.99399521 36.33528868 40.68140018 36.05305866 42.3671875 35.76171875 C44.28272386 35.51326006 46.19948434 35.27410913 48.1171875 35.04296875 C51.2206727 34.6555223 54.32390108 34.26730231 57.42578125 33.8671875 C70.11757442 32.29853891 82.69891817 31.69944689 95.4765625 31.76171875 C98.37565765 31.76110467 101.27473632 31.757787 104.17382812 31.75341797 C106.15764357 31.75901267 108.1414648 31.77917802 110.125 31.81298828 C113.03541648 31.85810734 115.94098194 31.84642585 118.8515625 31.82421875 C119.73487244 31.85193359 120.61818237 31.87964844 121.52825928 31.90820312 C124.10859395 31.85784653 125.97546056 31.7432192 128.3671875 30.76171875 C130.63746724 27.9899585 132.0610382 25.08447687 133.3671875 21.76171875 C134.0271875 21.76171875 134.6871875 21.76171875 135.3671875 21.76171875 C135.6559375 21.03984375 135.9446875 20.31796875 136.2421875 19.57421875 C137.28385417 16.97005208 138.32552083 14.36588542 139.3671875 11.76171875 C140.0271875 11.76171875 140.6871875 11.76171875 141.3671875 11.76171875 C141.5528125 11.06046875 141.7384375 10.35921875 141.9296875 9.63671875 C144.48712103 4.5218517 148.28947097 1.46735833 153.6796875 -0.36328125 C163.20356405 -0.04043798 171.46188554 6.01730078 179.2421875 11.01171875 C180.29704346 11.68195068 181.35189941 12.35218262 182.4387207 13.04272461 C184.50397874 14.35811154 186.56667676 15.67752883 188.62646484 17.00146484 C190.88297542 18.45072916 193.14734656 19.88554116 195.41796875 21.3125 C201.24424963 25.04915586 206.19930505 28.42595385 209.3671875 34.76171875 C210.77317624 45.80877314 202.68058351 55.0641093 196.9296875 63.94921875 C195.70357949 65.8601335 194.4783522 67.77161358 193.25390625 69.68359375 C192.62145996 70.67037109 191.98901367 71.65714844 191.33740234 72.67382812 C187.94143901 77.99627475 184.5898645 83.34631329 181.2421875 88.69921875 C180.61513916 89.69912842 179.98809082 90.69903809 179.34204102 91.72924805 C176.24430351 96.68571232 173.21965742 101.6599131 170.3671875 106.76171875 C171.0478125 106.92671875 171.7284375 107.09171875 172.4296875 107.26171875 C177.8394454 110.02414831 181.54499339 114.42495654 183.5546875 120.13671875 C183.09246285 129.07306191 177.7979766 136.793559 172.9921875 144.07421875 C172.44046875 144.94111328 171.88875 145.80800781 171.3203125 146.70117188 C168.15084083 151.55582039 165.31534205 155.65326269 160.3671875 158.76171875 C156.71875 159.25 156.71875 159.25 152.9921875 159.07421875 C151.74695313 159.02910156 150.50171875 158.98398438 149.21875 158.9375 C148.27773438 158.87949219 147.33671875 158.82148438 146.3671875 158.76171875 C146.3671875 158.10171875 146.3671875 157.44171875 146.3671875 156.76171875 C143.3971875 155.77171875 143.3971875 155.77171875 140.3671875 154.76171875 C140.3671875 154.10171875 140.3671875 153.44171875 140.3671875 152.76171875 C136.45571522 156.46954166 133.30312108 160.37939356 130.1796875 164.76171875 C129.20681003 166.10495018 128.23283089 167.44738431 127.2578125 168.7890625 C126.77248047 169.4579248 126.28714844 170.12678711 125.78710938 170.81591797 C119.7759623 179.05333926 113.44699552 186.9629297 106.76245117 194.66333008 C103.67513839 198.21987861 100.68176981 201.8307603 97.7421875 205.51171875 C94.0009168 210.12730815 89.9463224 214.28434963 85.69921875 218.43359375 C83.6715436 220.45787245 81.78601363 222.51947542 79.9296875 224.69921875 C73.06882355 232.69277251 65.40420928 239.96665237 57.3671875 246.76171875 C56.42488281 247.5815625 55.48257813 248.40140625 54.51171875 249.24609375 C44.07892609 258.27736977 33.1666437 266.58950027 21.3671875 273.76171875 C20.7071875 274.42171875 20.0471875 275.08171875 19.3671875 275.76171875 C18.3565625 276.09171875 17.3459375 276.42171875 16.3046875 276.76171875 C13.24567944 277.41924431 13.24567944 277.41924431 12.3671875 279.76171875 C9.8226441 281.11621718 7.29392428 282.36831933 4.6796875 283.57421875 C3.91164795 283.9302417 3.1436084 284.28626465 2.35229492 284.65307617 C-12.73426334 291.54011265 -27.9812604 296.01438401 -44.6328125 296.76171875 C-45.84130859 296.82359375 -45.84130859 296.82359375 -47.07421875 296.88671875 C-60.67334733 297.24518013 -72.76014905 295.38191301 -83.3828125 286.44921875 C-84.1253125 285.56234375 -84.8678125 284.67546875 -85.6328125 283.76171875 C-86.17292969 283.18421875 -86.71304688 282.60671875 -87.26953125 282.01171875 C-97.20916005 270.62750182 -100.81435657 254.61836873 -100.6328125 239.76171875 C-100.33405153 238.08850903 -100.00799185 236.41946702 -99.6328125 234.76171875 C-98.51946533 234.75237305 -97.40611816 234.74302734 -96.2590332 234.73339844 C-92.06707999 234.69305906 -87.87582736 234.62718649 -83.68432617 234.55419922 C-81.88168442 234.52624132 -80.07892582 234.50490367 -78.27612305 234.49072266 C-55.91446044 234.30442722 -40.19517177 227.27789587 -22.30395508 213.98974609 C-20.509314 212.67096675 -18.69174673 211.38804551 -16.87109375 210.10546875 C-13.76534531 207.85764117 -11.30511141 205.49919568 -8.6328125 202.76171875 C-7.41075865 201.69104544 -6.18081831 200.62934071 -4.9453125 199.57421875 C-0.77505487 195.96941978 3.06413486 192.08262142 6.93359375 188.16015625 C8.9948813 186.12864653 11.08905306 184.24440816 13.3046875 182.38671875 C17.6657243 178.64371311 21.45427544 174.41712018 25.29296875 170.15234375 C27.48832889 167.71545795 29.71850055 165.31619988 31.97265625 162.93359375 C32.58802246 162.28197266 33.20338867 161.63035156 33.83740234 160.95898438 C35.02880435 159.69969171 36.22296048 158.44299652 37.42041016 157.18945312 C40.98152405 153.4126705 44.11893164 149.51326637 47.09448242 145.25683594 C47.5144751 144.76344727 47.93446777 144.27005859 48.3671875 143.76171875 C49.0271875 143.76171875 49.6871875 143.76171875 50.3671875 143.76171875 C50.57988281 143.23835937 50.79257813 142.715 51.01171875 142.17578125 C52.92444938 138.76924659 55.46887465 136.04980471 58.0546875 133.13671875 C62.41999807 128.15106082 66.42187136 123.10619336 70.0625 117.5546875 C71.3671875 115.76171875 71.3671875 115.76171875 73.3671875 114.76171875 C73.6971875 113.77171875 74.0271875 112.78171875 74.3671875 111.76171875 C73.3771875 111.76171875 72.3871875 111.76171875 71.3671875 111.76171875 C71.3671875 111.10171875 71.3671875 110.44171875 71.3671875 109.76171875 C70.7690625 109.53484375 70.1709375 109.30796875 69.5546875 109.07421875 C66.53183257 107.26050579 65.71374009 106.06077261 64.3671875 102.76171875 C62.66865442 95.13158968 64.92104484 89.95306009 68.8671875 83.57421875 C70.33197942 81.27563068 71.83393641 79.01596291 73.3671875 76.76171875 C66.93392552 76.55748821 60.6925879 76.9305995 54.3046875 77.63671875 C53.5422876 77.71519043 52.7798877 77.79366211 51.99438477 77.87451172 C50.10848834 78.09638189 48.23519064 78.42055019 46.3671875 78.76171875 C46.0371875 79.42171875 45.7071875 80.08171875 45.3671875 80.76171875 C44.5628125 80.88546875 43.7584375 81.00921875 42.9296875 81.13671875 C42.0840625 81.34296875 41.2384375 81.54921875 40.3671875 81.76171875 C39.31697647 83.61143571 39.31697647 83.61143571 38.3671875 85.76171875 C32.92404524 90.77513925 28.7154244 90.91060046 21.5390625 90.859375 C20.79005676 90.85796005 20.04105103 90.8565451 19.26934814 90.85508728 C16.88525338 90.84950534 14.50125372 90.8369562 12.1171875 90.82421875 C10.49739719 90.81920141 8.87760541 90.81463891 7.2578125 90.81054688 C3.29423438 90.79954183 -0.66927295 90.78228966 -4.6328125 90.76171875 C-4.59671875 91.68597656 -4.560625 92.61023438 -4.5234375 93.5625 C-4.66593291 97.73049068 -6.05551501 99.54009688 -8.6328125 102.76171875 C-12.15048919 105.85301039 -15.16663448 106.87662984 -19.80957031 106.9387207 C-20.64764221 106.95155594 -21.48571411 106.96439117 -22.34918213 106.97761536 C-23.70387604 106.98869576 -23.70387604 106.98869576 -25.0859375 107 C-26.48631256 107.01210762 -26.48631256 107.01210762 -27.91497803 107.02445984 C-29.89203032 107.03829108 -31.86910639 107.04901753 -33.84619141 107.05688477 C-36.85756177 107.07407461 -39.86782751 107.11796662 -42.87890625 107.16210938 C-44.80207528 107.17223881 -46.72525362 107.18075413 -48.6484375 107.1875 C-49.54346985 107.20500809 -50.4385022 107.22251617 -51.36065674 107.24055481 C-57.31351064 107.2200824 -60.75102455 106.21814126 -65.6328125 102.76171875 C-72.03710146 95.51476019 -70.81165607 85.69555272 -70.4453125 76.57421875 C-70.42662109 75.61580078 -70.40792969 74.65738281 -70.38867188 73.66992188 C-70.15671044 67.78135706 -69.54728386 64.24869049 -65.6328125 59.76171875 C-64.6428125 59.10171875 -63.6528125 58.44171875 -62.6328125 57.76171875 C-63.24887229 53.75733013 -65.38722551 51.05992464 -67.6328125 47.76171875 C-68.96079542 43.77776999 -68.85613332 40.121176 -68.8828125 35.94921875 C-68.9034375 35.15451172 -68.9240625 34.35980469 -68.9453125 33.54101562 C-68.97847519 28.52930335 -68.44497976 25.08509739 -65.6328125 20.76171875 C-60.67327502 16.93874194 -57.13938 15.62634737 -50.9453125 15.69921875 C-49.95144531 15.70824219 -48.95757812 15.71726562 -47.93359375 15.7265625 C-46.79470703 15.74396484 -46.79470703 15.74396484 -45.6328125 15.76171875 C-45.65601563 14.95347656 -45.67921875 14.14523438 -45.703125 13.3125 C-45.72117188 12.24386719 -45.73921875 11.17523437 -45.7578125 10.07421875 C-45.78101563 9.01847656 -45.80421875 7.96273438 -45.828125 6.875 C-45.57334247 2.81376652 -44.78693514 0.04660405 -42.046875 -3.00390625 C-41.45648438 -3.49375 -40.86609375 -3.98359375 -40.2578125 -4.48828125 C-39.67257813 -4.9884375 -39.08734375 -5.48859375 -38.484375 -6.00390625 C-27.66317457 -13.21803987 -9.63721028 -6.27208603 0 0 Z M93.3671875 81.76171875 C91.47256417 83.80760419 91.47256417 83.80760419 89.7421875 86.44921875 C89.13117188 87.31933594 88.52015625 88.18945312 87.890625 89.0859375 C86.37321994 91.75112331 85.88548769 93.77477162 85.3671875 96.76171875 C92.10811721 101.60642093 98.99423604 106.06517904 106.1171875 110.32421875 C115.93347949 116.24494044 125.63480212 122.32704753 135.2890625 128.5078125 C136.11083984 129.03101074 136.93261719 129.55420898 137.77929688 130.09326172 C139.64703419 131.29742368 141.50091417 132.52317419 143.34570312 133.76220703 C144.32732422 134.41302246 145.30894531 135.06383789 146.3203125 135.734375 C147.21395508 136.33644775 148.10759766 136.93852051 149.02832031 137.55883789 C149.80014648 137.95578857 150.57197266 138.35273926 151.3671875 138.76171875 C155.231268 137.47369192 155.92856446 135.89413618 158.1171875 132.51171875 C158.75140625 131.5578125 159.385625 130.60390625 160.0390625 129.62109375 C161.53656423 126.39706061 161.45715094 125.0800519 160.3671875 121.76171875 C158.7171875 121.43171875 157.0671875 121.10171875 155.3671875 120.76171875 C155.0371875 119.77171875 154.7071875 118.78171875 154.3671875 117.76171875 C152.18107871 116.08816141 152.18107871 116.08816141 149.44921875 114.51171875 C148.44181641 113.90328125 147.43441406 113.29484375 146.39648438 112.66796875 C145.33494141 112.03890625 144.27339844 111.40984375 143.1796875 110.76171875 C142.13748047 110.13265625 141.09527344 109.50359375 140.02148438 108.85546875 C136.11469783 106.51090009 132.24824758 104.19778475 128.1628418 102.17578125 C125.3671875 100.76171875 125.3671875 100.76171875 123.0546875 98.88671875 C116.79534903 93.87739899 116.79534903 93.87739899 109.3671875 91.76171875 C109.3671875 91.10171875 109.3671875 90.44171875 109.3671875 89.76171875 C107.28830038 88.28484887 105.23435376 86.94776137 103.0546875 85.63671875 C102.45978516 85.26417969 101.86488281 84.89164062 101.25195312 84.5078125 C97.58238053 82.26870801 97.58238053 82.26870801 93.3671875 81.76171875 Z M107.3671875 133.76171875 C105.59204293 135.86326087 105.59204293 135.86326087 103.7421875 138.57421875 C102.66904297 140.08435547 102.66904297 140.08435547 101.57421875 141.625 C100.84589844 142.66011719 100.11757812 143.69523438 99.3671875 144.76171875 C91.14442188 156.31236201 82.11775977 167.10407262 72.92578125 177.88427734 C71.81090368 179.2272298 70.72251088 180.59234566 69.65234375 181.97119141 C62.68492336 190.83156348 54.77596014 198.72514493 46.81396484 206.68554688 C44.38960995 209.11425603 41.98172704 211.55851157 39.57421875 214.00390625 C30.28555192 223.35855409 20.74868005 231.82973934 10.05325317 239.54490662 C8.54593267 240.63272064 7.05464248 241.74266743 5.56567383 242.85546875 C-10.55029913 254.88027975 -28.78172204 263.62938756 -49.09375 264.078125 C-49.88431793 264.0989061 -50.67488586 264.11968719 -51.4894104 264.14109802 C-53.99546267 264.20607457 -56.50161274 264.26523518 -59.0078125 264.32421875 C-60.71485355 264.36745343 -62.42188499 264.41106924 -64.12890625 264.45507812 C-68.29677676 264.56170215 -72.46474489 264.66311316 -76.6328125 264.76171875 C-75.22990974 268.51594938 -74.20802388 270.55827308 -70.9453125 272.94921875 C-70.30207031 273.43777344 -69.65882812 273.92632812 -68.99609375 274.4296875 C-57.25795477 281.04572947 -39.29657288 278.913164 -26.68823242 275.66625977 C3.33244279 267.08431307 30.04602394 246.51961407 51.55322266 224.54150391 C53.34558231 222.78291684 55.20333739 221.15989489 57.1171875 219.53515625 C61.26468239 215.92644541 65.02073155 212.05297195 68.7421875 208.01171875 C69.3928418 207.30998535 70.04349609 206.60825195 70.71386719 205.88525391 C72.01067501 204.48481695 73.30565526 203.08268503 74.59863281 201.67871094 C76.1152835 200.03476544 77.64073885 198.39995995 79.171875 196.76953125 C84.1440723 191.41607921 88.73449025 185.86149884 93.19677734 180.08447266 C95.84545285 176.66338284 98.56005184 173.33104315 101.39575195 170.06347656 C106.40913602 164.28558551 111.08431581 158.29926282 115.6171875 152.13671875 C116.20290527 151.35393555 116.78862305 150.57115234 117.39208984 149.76464844 C117.92527832 149.02891602 118.4584668 148.29318359 119.0078125 147.53515625 C119.48766602 146.87950684 119.96751953 146.22385742 120.46191406 145.54833984 C120.91002441 144.6639624 120.91002441 144.6639624 121.3671875 143.76171875 C120.06186202 139.84574231 118.39453476 139.22341529 114.9296875 137.07421875 C113.94097656 136.45160156 112.95226562 135.82898438 111.93359375 135.1875 C109.56511229 133.59983777 109.56511229 133.59983777 107.3671875 133.76171875 Z " fill="#ffffff" transform="translate(108.6328125,19.23828125)"/>
</svg>
